{"title":"Marriage Da Garriage 2014 Punjabi 480P DVDRIP GOPI SAHI","uid":10164023,"size":773737902,"categoryP":"video","categoryS":"movies","magnet":"?xt=urn:btih:af4675d0075b10cd7526825fcb6e6bc19b31d79c&amp;dn=Marriage+Da+Garriage+2014+Punjabi+480P+DVDRIP+GOPI+SAHI&amp;tr=udp%3A%2F%2Ftracker.openbittorrent.com%3A80&amp;tr=udp%3A%2F%2Fopen.demonii.com%3A1337&amp;tr=udp%3A%2F%2Ftracker.coppersurfer.tk%3A6969&amp;tr=udp%3A%2F%2Fexodus.desync.com%3A6969","seeders":2,"leechers":1,"uploader":"jatt13","files":1,"time":1400286960,"description":" &lt;a href=&quot;http://www.imdb.com/title/tt3548416/&quot; rel=&quot;nofollow&quot; target=&quot;_NEW&quot;&gt;http://www.imdb.com/title/tt3548416/&lt;/a&gt;\nVideo\nID                             : 1\nFormat                         : AVC\nFormat/Info                    : Advanced Video Codec\nFormat profile                 : &lt;a class=&quot;__cf_email__&quot; href=&quot;/cdn-cgi/l/email-protection&quot; data-cfemail=&quot;195478707759552a3729&quot;&gt;[email&amp;#160;protected]&lt;/a&gt;&lt;script cf-hash='f9e31' type=&quot;text/javascript&quot;&gt;\n/* &lt;![CDATA[ */!function(){try{var t=&quot;currentScript&quot;in document?document.currentScript:function(){for(var t=document.getElementsByTagName(&quot;script&quot;),e=t.length;e--;)if(t[e].getAttribute(&quot;cf-hash&quot;))return t[e]}();if(t&amp;&amp;t.previousSibling){var e,r,n,i,c=t.previousSibling,a=c.getAttribute(&quot;data-cfemail&quot;);if(a){for(e=&quot;&quot;,r=parseInt(a.substr(0,2),16),n=2;a.length-n;n+=2)i=parseInt(a.substr(n,2),16)^r,e+=String.fromCharCode(i);e=document.createTextNode(e),c.parentNode.replaceChild(e,c)}}}catch(u){}}();/* ]]&gt; */&lt;/script&gt;\nFormat settings, CABAC         : Yes\nFormat settings, ReFrames      : 3 frames\nCodec ID                       : V_MPEG4/ISO/AVC\nDuration                       : 2h 22mn\nBit rate                       : 629 Kbps\nWidth                          : 854 pixels\nHeight                         : 480 pixels\nDisplay aspect ratio           : 16:9\nFrame rate mode                : Constant\nFrame rate                     : 25.000 fps\nColor space                    : YUV\nChroma subsampling             : 4:2:0\nBit depth                      : 8 bits\nScan type                      : Progressive\nBits/(Pixel*Frame)             : 0.061\nStream size                    : 642 MiB (87%)\nTitle                          : GOPI SAHI\nLanguage                       : Panjabi\nDefault                        : Yes\nForced                         : No\n\nAudio\nID                             : 3\nFormat                         : MPEG Audio\nFormat version                 : Version 1\nFormat profile                 : Layer 3\nMode                           : Joint stereo\nMode extension                 : MS Stereo\nCodec ID                       : A_MPEG/L3\nCodec ID/Hint                  : MP3\nDuration                       : 2h 22mn\nBit rate mode                  : Constant\nBit rate                       : 80.0 Kbps\nChannel count                  : 2 channels\nSampling rate                  : 44.1 KHz\nCompression mode               : Lossy\nStream size                    : 81.6 MiB (11%)\nTitle                          : GOPI SAHI\nWriting library                : LAME3.98.2\nLanguage                       : Panjabi\nDefault                        : Yes\nForced                         : No\n[IMG]http://i.imgur.com/5f1IgVL.jpg[/IMG]\n[IMG]http://i.imgur.com/5InZx2x.jpg[/IMG]\n[IMG]http://i.imgur.com/jo4d3vg.jpg[/IMG]\n[IMG]http://i.imgur.com/8NiQN34.jpg[/IMG]\n","torrent":{"xt":"urn:btih:af4675d0075b10cd7526825fcb6e6bc19b31d79c","amp;dn":"Marriage+Da+Garriage+2014+Punjabi+480P+DVDRIP+GOPI+SAHI","amp;tr":["udp%3A%2F%2Ftracker.openbittorrent.com%3A80","udp%3A%2F%2Fopen.demonii.com%3A1337","udp%3A%2F%2Ftracker.coppersurfer.tk%3A6969","udp%3A%2F%2Fexodus.desync.com%3A6969"],"infoHash":"af4675d0075b10cd7526825fcb6e6bc19b31d79c","infoHashBuffer":{"type":"Buffer","data":[175,70,117,208,7,91,16,205,117,38,130,95,203,110,107,193,155,49,215,156]},"announce":[],"urlList":[]}}